# xmcd CD database file
#
# Track frame offsets:
#	150
#	24206
#	43295
#	77886
#	90793
#	112092
#	133943
#	157968
#	177047
#
# Disc length: 2531 seconds
#
# Revision: 1
# Processed by: cddbd v1.5.1PL0 Copyright (c) Steve Scherf et al.
# Submitted via: CDex 1.51
#
DISCID=6709e109
DTITLE=佐藤利奈 - 空色のリボン
DYEAR=2005
DGENRE=Japanese Pop
TTITLE0=空色のリボン
TTITLE1=あの空の彼方に
TTITLE2=あの空で逢えたら Part.1
TTITLE3=Garden of Heaven
TTITLE4=あの空で逢えたら Part.2
TTITLE5=やさしさの魔法
TTITLE6=空色のリボン (instrumental ver.)
TTITLE7=あの空の彼方に (instrumental ver.)
TTITLE8=Garden of Heaven (instrumental ver.)
EXTD=YEAR: 2005
EXTT0=
EXTT1=
EXTT2=
EXTT3=
EXTT4=
EXTT5=
EXTT6=
EXTT7=
EXTT8=
PLAYORDER=
